<!-- Generated by IcoMoon.io -->
<svg version="1.1" xmlns="http://www.w3.org/2000/svg" width="20" height="20" viewBox="0 0 20 20">
<title>eye-with-line</title>
<path fill="#444" d="M18.521 1.478c-0.39-0.391-1.023-0.391-1.414-0l-15.629 15.631c-0.391 0.391-0.391 1.024 0 1.414 0.391 0.391 1.023 0.391 1.414-0l15.629-15.631c0.391-0.391 0.391-1.023 0-1.414zM3.108 13.497l2.559-2.558c-0.070-0.303-0.113-0.615-0.113-0.939 0-2.379 1.99-4.309 4.445-4.309 0.286 0 0.564 0.031 0.835 0.082l1.202-1.202c-0.644-0.104-1.318-0.171-2.038-0.171-6.561 0-10 4.832-10 5.6 0 0.423 1.057 2.091 3.108 3.497zM16.895 6.505l-2.562 2.561c0.069 0.302 0.111 0.613 0.111 0.934 0 2.379-1.989 4.307-4.444 4.307-0.284 0-0.56-0.032-0.829-0.081l-1.204 1.204c0.642 0.104 1.316 0.17 2.033 0.17 6.561 0 10-4.834 10-5.6 0-0.424-1.056-2.090-3.105-3.495z"></path>
</svg>
