<!-- Generated by IcoMoon.io -->
<svg version="1.1" xmlns="http://www.w3.org/2000/svg" width="20" height="20" viewBox="0 0 20 20">
<title>flower</title>
<path fill="#444" d="M12.659 8.76c0.44-1.086-0.363-2.508-1.21-3.406 0.328-1.189 0.372-2.822-0.525-3.575s-2.497-0.43-3.613 0.098c-1.030-0.68-2.569-1.225-3.563-0.605s-1.18 2.243-1.023 3.466c-0.965 0.769-1.959 2.064-1.677 3.201s1.768 1.816 2.98 2.044c0.433 1.155 1.358 2.501 2.527 2.584 0.828 0.059 1.62-0.531 2.224-1.263 1.221 1.52 2.082 3.128 2.555 4.707-0.723-1.082-2.22-2.010-5.335-2.010 0 4.155 3.042 5.003 5 5.003l3.2 0.002c0-2.723-0.986-5.91-3.29-8.901 0.782-0.247 1.478-0.677 1.749-1.344zM8.283 8.54c-1.147 0.715-2.657 0.366-3.372-0.781s-0.366-2.657 0.781-3.372 2.657-0.366 3.372 0.781c0.715 1.147 0.366 2.657-0.781 3.372zM14.020 12.248c1.083 2.17 1.669 4.453 1.677 6.705 3.299-2.371 3.303-6.747 3.303-10.95 0 0-3.671 1.035-4.98 4.245z"></path>
</svg>
