<!-- Generated by IcoMoon.io -->
<svg version="1.1" xmlns="http://www.w3.org/2000/svg" width="20" height="20" viewBox="0 0 20 20">
<title>medium-with-circle</title>
<path fill="#444" d="M10 0.4c-5.302 0-9.6 4.298-9.6 9.6s4.298 9.6 9.6 9.6 9.6-4.298 9.6-9.6-4.298-9.6-9.6-9.6zM14.2 7.667h-0.117c0 0-0.35 0-0.35 0.35s0 3.967 0 3.967 0 0.35 0.35 0.35h0.117v0.933h-2.8v-0.933h0.467v-4.34h-0.047l-1.43 5.273h-1.259l-1.417-5.273h-0.047v4.34h0.467v0.933h-2.333v-0.933h0.117c0 0 0.35 0 0.35-0.35s0-3.967 0-3.967 0-0.35-0.35-0.35h-0.117v-0.933h3.096l1.086 4.041h0.036l1.096-4.041h3.087v0.933z"></path>
</svg>
