<!-- Generated by IcoMoon.io -->
<svg version="1.1" xmlns="http://www.w3.org/2000/svg" width="20" height="20" viewBox="0 0 20 20">
<title>qq-with-circle</title>
<path fill="#444" d="M10 0.4c-5.302 0-9.6 4.298-9.6 9.6s4.298 9.6 9.6 9.6 9.6-4.298 9.6-9.6-4.298-9.6-9.6-9.6zM14.008 12.321c-0.183 0.095-0.469-0.122-0.737-0.521-0.105 0.435-0.369 0.828-0.743 1.144 0.393 0.144 0.65 0.381 0.65 0.65 0 0.442-0.695 0.799-1.553 0.799-0.773 0-1.415-0.291-1.533-0.672h-0.184c-0.119 0.381-0.759 0.672-1.532 0.672-0.858 0-1.553-0.357-1.553-0.799 0-0.269 0.257-0.506 0.65-0.65-0.375-0.315-0.638-0.709-0.744-1.144-0.267 0.398-0.553 0.616-0.735 0.521-0.265-0.137-0.213-0.88 0.117-1.654 0.259-0.611 0.612-1.061 0.878-1.158-0.004-0.039-0.005-0.078-0.005-0.117 0-0.237 0.066-0.455 0.177-0.631-0.001-0.015-0.002-0.029-0.002-0.042 0-0.11 0.027-0.21 0.071-0.298 0.067-1.586 1.1-2.844 2.771-2.844 1.67 0 2.702 1.258 2.771 2.844 0.044 0.088 0.070 0.188 0.070 0.298 0 0.012 0 0.027-0.003 0.042 0.112 0.176 0.177 0.393 0.177 0.631 0 0.039-0.001 0.078-0.005 0.117 0.268 0.098 0.619 0.547 0.878 1.158 0.331 0.775 0.382 1.517 0.119 1.654z"></path>
</svg>
