<!-- Generated by IcoMoon.io -->
<svg version="1.1" xmlns="http://www.w3.org/2000/svg" width="20" height="20" viewBox="0 0 20 20">
<title>raft-with-circle</title>
<path fill="#444" d="M10 0.4c-5.302 0-9.6 4.298-9.6 9.6s4.298 9.6 9.6 9.6 9.6-4.298 9.6-9.6-4.298-9.6-9.6-9.6zM13.215 14.193c-0.279 0.267-0.664 0.42-1.054 0.42-0.479 0-0.867-0.179-1.153-0.532-0.198-0.244-0.308-0.496-0.466-0.936l-0.079-0.219c-0.183-0.498-0.344-0.75-0.577-0.879-0.071 0.271-0.149 0.524-0.234 0.756-0.445 1.216-1.077 1.832-1.88 1.832-0.452 0-0.849-0.186-1.12-0.522-0.332-0.413-0.438-0.996-0.299-1.642l0.030-0.139 1.016 0.222-0.030 0.138c-0.072 0.332-0.043 0.6 0.081 0.754 0.076 0.095 0.185 0.143 0.322 0.143 0.399 0 0.795-0.639 1.094-1.759-0.327-0.111-0.628-0.276-0.896-0.49l-0.11-0.088 0.648-0.818 0.111 0.089c0.141 0.114 0.299 0.206 0.47 0.277 0.087-0.499 0.156-1.046 0.207-1.631l0.012-0.141 1.035 0.091-0.012 0.141c-0.052 0.602-0.124 1.167-0.212 1.682 0.714-0.072 1.365-0.477 1.727-1.087 0.593-0.999 0.357-2.25-0.561-2.974-0.392-0.31-0.969-0.486-1.507-0.459-0.671 0.028-1.237 0.331-1.682 0.909-0.535 0.696-0.592 1.739-0.134 2.479l0.074 0.12-0.883 0.553-0.075-0.121c-0.689-1.116-0.609-2.626 0.195-3.672 0.631-0.822 1.482-1.272 2.461-1.313 0.799-0.031 1.603 0.216 2.191 0.68 1.335 1.054 1.677 2.876 0.812 4.333-0.381 0.641-0.969 1.13-1.669 1.393 0.13 0.198 0.24 0.434 0.367 0.779l0.081 0.226c0.256 0.714 0.373 0.778 0.641 0.778 0.121 0 0.254-0.052 0.338-0.132 0.161-0.154 0.208-0.451 0.141-0.881l-0.022-0.14 1.027-0.162 0.022 0.14c0.121 0.779-0.035 1.402-0.452 1.801z"></path>
</svg>
