<!-- Generated by IcoMoon.io -->
<svg version="1.1" xmlns="http://www.w3.org/2000/svg" width="20" height="20" viewBox="0 0 20 20">
<title>raft</title>
<path fill="#444" d="M5.673 19c-0.877 0-1.65-0.361-2.176-1.014-0.645-0.803-0.851-1.935-0.582-3.19l0.058-0.27 1.974 0.431-0.058 0.269c-0.139 0.645-0.083 1.165 0.158 1.465 0.148 0.184 0.359 0.278 0.626 0.278 0.775 0 1.545-1.241 2.125-3.418-0.636-0.216-1.22-0.535-1.74-0.952l-0.214-0.171 1.258-1.589 0.215 0.172c0.274 0.221 0.581 0.401 0.914 0.537 0.169-0.969 0.304-2.032 0.403-3.169l0.024-0.274 2.011 0.178-0.024 0.274c-0.102 1.17-0.24 2.267-0.411 3.268 1.387-0.14 2.652-0.927 3.355-2.111 1.152-1.941 0.694-4.37-1.089-5.778-0.762-0.602-1.882-0.943-2.927-0.891-1.304 0.055-2.404 0.642-3.268 1.766-1.040 1.352-1.15 3.378-0.261 4.816l0.145 0.234-1.715 1.074-0.145-0.235c-1.338-2.168-1.183-5.101 0.38-7.133 1.227-1.596 2.879-2.472 4.781-2.551 1.552-0.061 3.113 0.421 4.257 1.322 2.594 2.047 3.257 5.588 1.577 8.418-0.74 1.246-1.882 2.196-3.243 2.707 0.252 0.384 0.466 0.843 0.712 1.514l0.158 0.439c0.497 1.387 0.724 1.511 1.245 1.511 0.236 0 0.494-0.1 0.657-0.257 0.313-0.3 0.405-0.875 0.274-1.712l-0.043-0.273 1.995-0.315 0.043 0.273c0.236 1.513-0.068 2.723-0.877 3.499-0.542 0.518-1.289 0.815-2.049 0.815-0.931 0-1.685-0.348-2.24-1.033-0.385-0.474-0.599-0.964-0.905-1.818l-0.153-0.426c-0.355-0.968-0.668-1.457-1.12-1.707-0.138 0.526-0.289 1.019-0.454 1.468-0.865 2.361-2.093 3.559-3.651 3.559z"></path>
</svg>
