<!-- Generated by IcoMoon.io -->
<svg version="1.1" xmlns="http://www.w3.org/2000/svg" width="20" height="20" viewBox="0 0 20 20">
<title>tripadvisor</title>
<path fill="#444" d="M20 6.009h-2.829c-1.959-1.334-4.359-2.009-7.171-2.009s-5.212 0.675-7.171 2.009h-2.829c0.428 0.42 0.827 1.34 0.993 2.039-0.616 0.831-0.993 1.849-0.993 2.961 0 2.757 2.243 5 5 5 1.327 0 2.527-0.528 3.423-1.375l1.577 2.366 1.577-2.366c0.896 0.846 2.096 1.375 3.423 1.375 2.757 0 5-2.243 5-5 0-1.112-0.377-2.13-0.993-2.961 0.166-0.699 0.565-1.619 0.993-2.039zM5 14.409c-1.875 0-3.4-1.525-3.4-3.4s1.525-3.4 3.4-3.4 3.4 1.525 3.4 3.4-1.525 3.4-3.4 3.4zM10 11.009c0-2.417-1.725-4.438-4.009-4.9 1.203-0.405 2.538-0.609 4.009-0.609s2.805 0.204 4.009 0.609c-2.283 0.461-4.009 2.482-4.009 4.9zM15 14.409c-1.875 0-3.4-1.525-3.4-3.4s1.525-3.4 3.4-3.4 3.4 1.525 3.4 3.4-1.525 3.4-3.4 3.4zM5 8.859c-1.185 0-2.15 0.964-2.15 2.15s0.965 2.15 2.15 2.15 2.15-0.964 2.15-2.15-0.965-2.15-2.15-2.15zM5 11.65c-0.359 0-0.65-0.291-0.65-0.65s0.291-0.65 0.65-0.65 0.65 0.291 0.65 0.65-0.291 0.65-0.65 0.65zM15 8.859c-1.185 0-2.15 0.964-2.15 2.15s0.965 2.15 2.15 2.15 2.15-0.964 2.15-2.15-0.965-2.15-2.15-2.15zM15 11.65c-0.359 0-0.65-0.291-0.65-0.65s0.291-0.65 0.65-0.65 0.65 0.291 0.65 0.65-0.291 0.65-0.65 0.65z"></path>
</svg>
