<!-- Generated by IcoMoon.io -->
<svg version="1.1" xmlns="http://www.w3.org/2000/svg" width="20" height="20" viewBox="0 0 20 20">
<title>youko</title>
<path fill="#444" d="M19.418 12.080c-0.548-1.046-2.126-1.715-2.806-2.641 0.459-1.062 2.951-1.714 2.741-3.566-0.152-1.337-2.16-1.411-2.676-0.331-0.386 0.446-0.799 0.864-1.24 1.254-0.212 0.27-0.451 0.512-0.718 0.726-0.31 0.326-0.561 0.709-0.979 0.925v-2.575c-0.010-1.401-2.6-1.401-2.61 0v7.329c0.113 0.523 0.348 0.923 0.913 0.99h0.783c0.537-0.094 0.843-0.424 0.913-0.99v-1.585c0-0.549-0.101-1.477 0.261-0.924 0.532 0.526 1.28 1.093 1.958 1.716 0.65 0.6 1.273 1.569 1.957 1.717 1.402 0.304 2.020-1.057 1.501-2.046zM8.193 4.156c-0.557 0.389-0.866 1.589-1.24 2.443-0.412 0.939-0.773 1.886-1.175 2.575-1.085-1.246-1.825-4.007-3.132-5.019-0.422-0.326-1.346-0.317-1.762 0-1.126 0.858 0.004 2.374 0.457 3.17 0.994 1.744 2.096 3.612 2.937 5.216-0.547 1.459-3.308 5.581 0.392 5.349 0.895-0.586 1.275-1.804 1.762-2.906 0.996-2.255 1.842-4.204 2.871-6.537 0.428-0.97 1.459-2.402 1.24-3.5-0.174-0.87-1.498-1.387-2.349-0.792z"></path>
</svg>
