<!-- Generated by IcoMoon.io -->
<svg version="1.1" xmlns="http://www.w3.org/2000/svg" width="20" height="20" viewBox="0 0 20 20">
<title>youko-with-circle</title>
<path fill="#444" d="M10 0.4c-5.302 0-9.6 4.298-9.6 9.6s4.298 9.6 9.6 9.6 9.6-4.298 9.6-9.6-4.298-9.6-9.6-9.6zM9.596 9.479c-0.597 1.351-1.087 2.48-1.663 3.787-0.282 0.639-0.502 1.344-1.021 1.684-2.143 0.135-0.544-2.254-0.227-3.099-0.487-0.93-1.125-2.011-1.701-3.022-0.262-0.461-0.917-1.34-0.265-1.836 0.241-0.183 0.777-0.189 1.021 0 0.757 0.586 1.186 2.186 1.815 2.907 0.232-0.399 0.442-0.948 0.681-1.492 0.217-0.495 0.396-1.19 0.718-1.415 0.493-0.345 1.26-0.045 1.361 0.459 0.127 0.636-0.47 1.466-0.718 2.028zM14.586 12.769c-0.397-0.086-0.757-0.647-1.134-0.995-0.393-0.361-0.826-0.689-1.134-0.994-0.21-0.32-0.151 0.217-0.151 0.535v0.918c-0.041 0.328-0.218 0.519-0.529 0.574h-0.454c-0.327-0.039-0.464-0.271-0.529-0.574v-4.246c0.006-0.811 1.507-0.811 1.512 0v1.492c0.242-0.125 0.388-0.347 0.567-0.536 0.154-0.124 0.293-0.264 0.416-0.421 0.255-0.226 0.495-0.468 0.718-0.727 0.298-0.626 1.462-0.583 1.55 0.191 0.122 1.073-1.322 1.45-1.588 2.066 0.394 0.537 1.308 0.924 1.626 1.53 0.301 0.573-0.058 1.362-0.87 1.186z"></path>
</svg>
